<mxfile host="Electron" modified="2024-07-11T12:01:30.696Z" agent="Mozilla/5.0 (Windows NT 10.0; Win64; x64) AppleWebKit/537.36 (KHTML, like Gecko) draw.io/24.6.4 Chrome/124.0.6367.207 Electron/30.0.6 Safari/537.36" etag="BjnBaxF3JR3HE0pyTiKq" version="24.6.4" type="device">
  <diagram name="第 1 页" id="7_owCagruRL2u2UK9-JE">
    <mxGraphModel dx="1107" dy="767" grid="1" gridSize="10" guides="1" tooltips="1" connect="1" arrows="1" fold="1" page="1" pageScale="1" pageWidth="827" pageHeight="1169" math="0" shadow="0">
      <root>
        <mxCell id="0" />
        <mxCell id="1" parent="0" />
        <mxCell id="QY33d62DfFPX3UG9vda0-3" value="" style="edgeStyle=orthogonalEdgeStyle;rounded=0;orthogonalLoop=1;jettySize=auto;html=1;" edge="1" parent="1" source="QY33d62DfFPX3UG9vda0-1" target="QY33d62DfFPX3UG9vda0-2">
          <mxGeometry relative="1" as="geometry" />
        </mxCell>
        <mxCell id="QY33d62DfFPX3UG9vda0-1" value="X" style="rounded=0;whiteSpace=wrap;html=1;" vertex="1" parent="1">
          <mxGeometry x="310" y="180" width="120" height="60" as="geometry" />
        </mxCell>
        <mxCell id="QY33d62DfFPX3UG9vda0-5" value="" style="edgeStyle=orthogonalEdgeStyle;rounded=0;orthogonalLoop=1;jettySize=auto;html=1;" edge="1" parent="1" source="QY33d62DfFPX3UG9vda0-2" target="QY33d62DfFPX3UG9vda0-4">
          <mxGeometry relative="1" as="geometry" />
        </mxCell>
        <mxCell id="QY33d62DfFPX3UG9vda0-2" value="LN+ATT+LayerScale" style="rounded=0;whiteSpace=wrap;html=1;" vertex="1" parent="1">
          <mxGeometry x="310" y="320" width="120" height="60" as="geometry" />
        </mxCell>
        <mxCell id="QY33d62DfFPX3UG9vda0-4" value="Drop Path" style="rounded=0;whiteSpace=wrap;html=1;" vertex="1" parent="1">
          <mxGeometry x="310" y="460" width="120" height="60" as="geometry" />
        </mxCell>
        <mxCell id="QY33d62DfFPX3UG9vda0-6" value="" style="endArrow=classic;html=1;rounded=0;exitX=1;exitY=0.5;exitDx=0;exitDy=0;entryX=1;entryY=0.5;entryDx=0;entryDy=0;" edge="1" parent="1" source="QY33d62DfFPX3UG9vda0-1" target="QY33d62DfFPX3UG9vda0-11">
          <mxGeometry width="50" height="50" relative="1" as="geometry">
            <mxPoint x="390" y="360" as="sourcePoint" />
            <mxPoint x="390" y="570" as="targetPoint" />
            <Array as="points">
              <mxPoint x="480" y="210" />
              <mxPoint x="480" y="575" />
            </Array>
          </mxGeometry>
        </mxCell>
        <mxCell id="QY33d62DfFPX3UG9vda0-7" value="" style="endArrow=classic;html=1;rounded=0;" edge="1" parent="1">
          <mxGeometry width="50" height="50" relative="1" as="geometry">
            <mxPoint x="370" y="520" as="sourcePoint" />
            <mxPoint x="370" y="560" as="targetPoint" />
          </mxGeometry>
        </mxCell>
        <mxCell id="QY33d62DfFPX3UG9vda0-13" value="" style="edgeStyle=orthogonalEdgeStyle;rounded=0;orthogonalLoop=1;jettySize=auto;html=1;" edge="1" parent="1" source="QY33d62DfFPX3UG9vda0-11" target="QY33d62DfFPX3UG9vda0-12">
          <mxGeometry relative="1" as="geometry" />
        </mxCell>
        <mxCell id="QY33d62DfFPX3UG9vda0-11" value="" style="shape=orEllipse;perimeter=ellipsePerimeter;whiteSpace=wrap;html=1;backgroundOutline=1;" vertex="1" parent="1">
          <mxGeometry x="355" y="560" width="30" height="30" as="geometry" />
        </mxCell>
        <mxCell id="QY33d62DfFPX3UG9vda0-15" value="" style="edgeStyle=orthogonalEdgeStyle;rounded=0;orthogonalLoop=1;jettySize=auto;html=1;" edge="1" parent="1" source="QY33d62DfFPX3UG9vda0-12" target="QY33d62DfFPX3UG9vda0-14">
          <mxGeometry relative="1" as="geometry" />
        </mxCell>
        <mxCell id="QY33d62DfFPX3UG9vda0-12" value="LN+MLP+LayerScale" style="whiteSpace=wrap;html=1;" vertex="1" parent="1">
          <mxGeometry x="310" y="655" width="120" height="60" as="geometry" />
        </mxCell>
        <mxCell id="QY33d62DfFPX3UG9vda0-19" style="edgeStyle=orthogonalEdgeStyle;rounded=0;orthogonalLoop=1;jettySize=auto;html=1;entryX=0.5;entryY=0;entryDx=0;entryDy=0;" edge="1" parent="1" source="QY33d62DfFPX3UG9vda0-14" target="QY33d62DfFPX3UG9vda0-18">
          <mxGeometry relative="1" as="geometry" />
        </mxCell>
        <mxCell id="QY33d62DfFPX3UG9vda0-14" value="DropPath" style="whiteSpace=wrap;html=1;" vertex="1" parent="1">
          <mxGeometry x="310" y="795" width="120" height="60" as="geometry" />
        </mxCell>
        <mxCell id="QY33d62DfFPX3UG9vda0-16" value="" style="endArrow=classic;html=1;rounded=0;exitX=1;exitY=0.5;exitDx=0;exitDy=0;" edge="1" parent="1">
          <mxGeometry width="50" height="50" relative="1" as="geometry">
            <mxPoint x="370" y="610" as="sourcePoint" />
            <mxPoint x="390" y="930" as="targetPoint" />
            <Array as="points">
              <mxPoint x="482.5" y="610" />
              <mxPoint x="480" y="930" />
            </Array>
          </mxGeometry>
        </mxCell>
        <mxCell id="QY33d62DfFPX3UG9vda0-18" value="" style="shape=orEllipse;perimeter=ellipsePerimeter;whiteSpace=wrap;html=1;backgroundOutline=1;" vertex="1" parent="1">
          <mxGeometry x="355" y="910" width="30" height="30" as="geometry" />
        </mxCell>
        <mxCell id="QY33d62DfFPX3UG9vda0-20" value="Block" style="text;html=1;align=center;verticalAlign=middle;resizable=0;points=[];autosize=1;strokeColor=none;fillColor=none;" vertex="1" parent="1">
          <mxGeometry x="150" y="380" width="50" height="30" as="geometry" />
        </mxCell>
      </root>
    </mxGraphModel>
  </diagram>
</mxfile>
